<svg width="350" height="285" viewBox="0 0 350 285" fill="none" xmlns="http://www.w3.org/2000/svg">
<path fill-rule="evenodd" clip-rule="evenodd" d="M103.747 58.409C104.829 58.8494 105.89 59.2815 106.927 59.7012C112.448 45.7119 119.328 31.1551 129.324 18.6214C138.052 7.67768 157.045 -5.35016 178.269 2.40029C184.562 4.69829 192.85 8.33849 198.498 18.3226C205.752 31.1458 210.74 44.2792 214.345 57.745C215.347 61.4882 216.12 65.2787 216.735 69.0211C223.633 71.2089 230.88 72.3436 238.911 72.8336C240.456 72.9279 242.315 73.0024 244.353 73.0842L244.362 73.0845C245.768 72.9496 247.551 72.8029 249.343 72.7758C251.917 72.737 255.291 72.9115 258.935 73.9679C259.012 73.9789 259.143 73.9956 259.333 74.0137C259.8 74.058 260.411 74.091 261.195 74.1083C264.025 73.8543 266.852 73.6159 269.676 73.391C283.097 72.322 296.507 71.7333 309.95 71.4422C310.518 71.3522 311.094 71.2666 311.672 71.1873C314.485 70.8013 318.818 70.3416 322.964 70.8921C323.557 70.9708 324.333 71.0915 325.232 71.2974C330.105 71.4047 335.226 71.819 340.273 73.0816C341.783 73.4597 343.963 74.4911 345.122 76.9683C345.841 78.5054 345.865 79.9787 345.691 81.1156C347.726 83.5458 349.304 86.7121 349.747 90.6031C350.352 95.9189 348.494 100.126 347.396 102.217C345.198 106.403 342.023 109.084 340.754 110.15C340.372 110.472 340.005 110.77 339.737 110.987L339.676 111.037C339.412 111.251 339.244 111.388 339.084 111.521C338.993 111.597 338.93 111.651 338.889 111.686C331.745 119.201 323.779 127.355 314.386 134.563C303.376 143.012 291.46 150.001 280.2 156.293C278.18 157.423 276.166 158.56 274.157 159.705C276.611 163.57 278.895 167.314 280.776 170.442C281.981 172.445 283.036 174.221 283.864 175.615L283.865 175.616L283.869 175.624L283.872 175.628L284.14 176.079C284.578 176.817 284.925 177.4 285.192 177.844C285.366 178.133 285.463 178.291 285.503 178.357C285.52 178.384 285.527 178.396 285.527 178.396L285.521 178.387C290.274 185.657 293.312 193.073 295.694 199.666C296.721 202.508 297.556 204.967 298.334 207.256L298.335 207.259L298.336 207.261L298.336 207.262C299.554 210.849 300.631 214.019 302.083 217.596C303.595 221.322 305.479 226.788 305.076 233.092C304.988 234.474 304.798 235.807 304.517 237.094C304.815 239.418 304.818 241.852 304.438 244.35C303.346 251.513 299.279 257.739 293.043 261.82C286.649 266.004 279.807 267.165 274.339 267.334C268.924 267.502 263.768 266.718 260.016 266.062C259.367 265.948 258.716 265.834 258.064 265.72L256.445 265.438L256.444 265.437L256.443 265.437C246.487 263.7 236.162 261.897 225.975 259.767C216.023 257.686 206.2 253.819 198.052 250.612C196.149 249.863 194.339 249.15 192.639 248.505L192.577 248.481L192.515 248.458L192.453 248.434L192.391 248.411L192.33 248.387L192.268 248.364L192.206 248.34L192.144 248.317L192.083 248.293L192.021 248.27L191.959 248.246L191.897 248.223L191.835 248.2L191.774 248.176L191.712 248.153L191.65 248.129L191.588 248.106L191.527 248.082L191.465 248.059L191.403 248.035L191.341 248.012L191.279 247.988L191.218 247.965L191.156 247.941L191.094 247.918L191.032 247.894L190.971 247.871L190.909 247.847L190.847 247.824L190.785 247.801L190.723 247.777L190.662 247.754L190.6 247.73L190.538 247.707L190.476 247.683L190.415 247.66L190.353 247.636L190.291 247.613L190.229 247.589L190.167 247.566L190.106 247.542L190.044 247.519L189.982 247.495L189.92 247.472L189.859 247.448L189.797 247.425L189.735 247.402L189.673 247.378L189.611 247.355L189.55 247.331L189.488 247.308L189.426 247.284L189.364 247.261L189.302 247.237L189.241 247.214L189.179 247.19L189.117 247.167L189.055 247.143L188.994 247.12L188.932 247.096L188.87 247.073L188.808 247.05L188.746 247.026L188.685 247.003L188.623 246.979L188.561 246.956L188.499 246.932L188.438 246.909L188.376 246.885L188.314 246.862L188.252 246.838L188.19 246.815L188.129 246.791L188.067 246.768L188.005 246.744L187.943 246.721L187.882 246.697L187.82 246.674L187.758 246.651L187.696 246.627L187.634 246.604L187.573 246.58L187.511 246.557L187.449 246.533L187.387 246.51L187.326 246.486L187.264 246.463L187.202 246.439L187.14 246.416L187.078 246.392L187.017 246.369L186.955 246.345L186.893 246.322L186.831 246.298L186.77 246.275L186.708 246.252L186.646 246.228L186.584 246.205L186.522 246.181L186.461 246.158L186.399 246.134L186.337 246.111L186.275 246.087L186.214 246.064L186.152 246.04L186.09 246.017L186.028 245.993L185.966 245.97L185.905 245.946L185.843 245.923L185.781 245.9L185.719 245.876L185.658 245.853L185.596 245.829L185.534 245.806L185.472 245.782L185.41 245.759L185.349 245.735L185.287 245.712L185.225 245.688L185.163 245.665L185.102 245.641L185.04 245.618L184.978 245.594L184.916 245.571L184.854 245.547L184.793 245.524L184.731 245.501L184.669 245.477L184.607 245.454L184.546 245.43L184.484 245.407L184.422 245.383L184.36 245.36L184.298 245.336L184.237 245.313L184.175 245.289L184.113 245.266L184.051 245.242L183.99 245.219L183.928 245.195L183.866 245.172L183.804 245.148L183.742 245.125L183.681 245.102L183.619 245.078L183.557 245.055L183.495 245.031L183.434 245.008L183.372 244.984L183.31 244.961L183.248 244.937L183.186 244.914L183.125 244.89L183.063 244.867L183.001 244.843L182.939 244.82L182.877 244.796L182.816 244.773L182.754 244.75L182.692 244.726L182.63 244.703L182.569 244.679L182.507 244.656L182.445 244.632L182.383 244.609L182.321 244.585L182.26 244.562L182.198 244.538L182.136 244.515L182.074 244.491L182.013 244.468L181.951 244.444L181.889 244.421L181.827 244.397L181.765 244.374L181.704 244.351L181.642 244.327L181.58 244.304L181.518 244.28L181.457 244.257L181.395 244.233L181.333 244.21L181.271 244.186L181.209 244.163L181.148 244.139L181.086 244.116L181.024 244.092L180.962 244.069L180.901 244.045L180.839 244.022L180.777 243.998L180.715 243.975L180.653 243.952L180.592 243.928L180.53 243.905L180.468 243.881L180.406 243.858L180.345 243.834L180.283 243.811L180.221 243.787L180.159 243.764L180.097 243.74L180.036 243.717L179.974 243.693L179.912 243.67L179.85 243.646L179.789 243.623L179.727 243.6L179.665 243.576L179.603 243.553L179.541 243.529L179.48 243.506L179.418 243.482L179.356 243.459L179.294 243.435L179.233 243.412L179.171 243.388L179.109 243.365L179.047 243.341L178.985 243.318L178.924 243.294L178.862 243.271L178.8 243.247L178.738 243.224L178.677 243.201L178.615 243.177L178.553 243.154L178.491 243.13L178.429 243.107L178.368 243.083L178.306 243.06L178.244 243.036L178.182 243.013L178.12 242.989L178.059 242.966L177.997 242.942L177.935 242.919L177.873 242.895L177.812 242.872L177.75 242.848L177.688 242.825L177.626 242.802L177.564 242.778L177.503 242.755L177.441 242.731L177.379 242.708L177.317 242.684L177.256 242.661L177.194 242.637L177.132 242.614L177.07 242.59L177.008 242.567L176.947 242.543L176.885 242.52L176.823 242.496L176.761 242.473L176.7 242.45L176.638 242.426L176.576 242.403L176.514 242.379L176.452 242.356L176.391 242.332L176.329 242.309L176.267 242.285L176.205 242.262L176.144 242.238L176.082 242.215L176.02 242.191L175.958 242.168L175.896 242.144L175.835 242.121L175.773 242.097L175.711 242.074L175.649 242.051L175.588 242.027L175.526 242.004L175.464 241.98L175.402 241.957L175.34 241.933L175.279 241.91L175.217 241.886L175.155 241.863L175.093 241.839L175.032 241.816L174.97 241.792L174.908 241.769L174.846 241.745L174.784 241.722L174.723 241.698L174.661 241.675L174.599 241.652L174.537 241.628L174.476 241.605L174.414 241.581L174.352 241.558L174.29 241.534L174.228 241.511L174.167 241.487L174.105 241.464L174.043 241.44L173.981 241.417L173.92 241.393L173.858 241.37L173.796 241.346L173.734 241.323L173.672 241.3L173.611 241.276L173.549 241.253L173.487 241.229L173.425 241.206L173.364 241.182L173.302 241.159L173.24 241.135L173.178 241.112L173.116 241.088L173.055 241.065L172.993 241.041L172.931 241.018L172.869 240.994L172.808 240.971L172.746 240.947L172.684 240.924L172.622 240.901L172.56 240.877L172.499 240.854L172.437 240.83L172.375 240.807L172.313 240.783L172.252 240.76L172.19 240.736L172.128 240.713L172.066 240.689L172.004 240.666L171.943 240.642L171.881 240.619L171.819 240.595L171.757 240.572L171.695 240.548L171.634 240.525L171.572 240.502L171.51 240.478L171.448 240.455L171.387 240.431L171.325 240.408L171.263 240.384L171.201 240.361L171.139 240.337L171.078 240.314L171.016 240.29L170.954 240.267L170.892 240.243L170.831 240.22L170.769 240.196L170.707 240.173L170.645 240.15L170.583 240.126L170.522 240.103L170.46 240.079L170.398 240.056L170.336 240.032L170.275 240.009L170.213 239.985L170.151 239.962L170.089 239.938L170.027 239.915L169.966 239.891L169.904 239.868L169.842 239.844L169.78 239.821L169.719 239.797L169.657 239.774L169.595 239.751L169.533 239.727L169.471 239.704L169.41 239.68L169.348 239.657L169.286 239.633L169.224 239.61L169.163 239.586L169.101 239.563L169.039 239.539L168.977 239.516L168.915 239.492L168.854 239.469L168.792 239.445L168.73 239.422L168.668 239.398L168.607 239.375L168.545 239.352L168.483 239.328L168.421 239.305L168.359 239.281L168.298 239.258L168.236 239.234L168.174 239.211L168.112 239.187L168.051 239.164L167.989 239.14L167.927 239.117L167.865 239.093L167.803 239.07L167.742 239.046L167.68 239.023L167.618 239L167.556 238.976L167.495 238.953L167.433 238.929L167.371 238.906L167.309 238.882L167.247 238.859L167.186 238.835L167.124 238.812L167.062 238.788L167 238.765L166.939 238.741L166.877 238.718L166.815 238.694L166.753 238.671L166.691 238.647L166.63 238.624L166.568 238.601L166.506 238.577L166.444 238.554L166.382 238.53L166.321 238.507L166.259 238.483L166.197 238.46L166.135 238.436L166.074 238.413L166.012 238.389L165.95 238.366L165.888 238.342L165.826 238.319L165.765 238.295L165.703 238.272L165.641 238.248L165.579 238.225L165.518 238.202L165.456 238.178L165.394 238.155L165.332 238.131L165.27 238.108L165.209 238.084L165.147 238.061L165.085 238.037L165.023 238.014L164.962 237.99L164.9 237.967L164.838 237.943L164.776 237.92L164.714 237.896L164.653 237.873L164.591 237.85L164.529 237.826L164.467 237.803L164.406 237.779L164.344 237.756L164.282 237.732L164.22 237.709L164.158 237.685L164.097 237.662L164.035 237.638L163.973 237.615L163.911 237.591L163.85 237.568L163.788 237.544L163.726 237.521L163.664 237.497L163.602 237.474L163.541 237.451L163.479 237.427L163.417 237.404L163.355 237.38L163.294 237.357L163.232 237.333L163.17 237.31L163.108 237.286L163.046 237.263L162.985 237.239L162.923 237.216L162.861 237.192L162.799 237.169L162.738 237.145L162.676 237.122L162.614 237.098L162.552 237.075L162.49 237.052L162.429 237.028L162.367 237.005L162.305 236.981L162.243 236.958L162.182 236.934L162.12 236.911L162.058 236.887L161.996 236.864L161.934 236.84L161.873 236.817L161.811 236.793L161.749 236.77L161.687 236.746L161.626 236.723L161.564 236.7L161.502 236.676L161.44 236.653L161.378 236.629L161.317 236.606L161.255 236.582L161.193 236.559L161.131 236.535L161.069 236.512L161.008 236.488L160.984 236.479L160.96 236.47L160.937 236.461L160.913 236.452L160.889 236.443L160.866 236.434L160.842 236.425L160.818 236.416L160.795 236.407L160.771 236.398L160.747 236.389L160.724 236.38L160.7 236.371L160.676 236.362L160.653 236.353L160.629 236.344L160.605 236.335L160.582 236.326L160.558 236.317L160.534 236.308L160.511 236.299L160.487 236.29L160.463 236.281L160.44 236.273L160.416 236.264L160.392 236.255L160.369 236.246L160.345 236.237L160.321 236.228L160.298 236.219L160.274 236.21L160.25 236.201L160.227 236.192L160.203 236.183L160.179 236.174L160.156 236.165L160.132 236.156L160.108 236.147L160.085 236.138L160.061 236.129L160.037 236.12L160.014 236.111L159.99 236.102L159.966 236.093L159.943 236.084L159.919 236.075L159.895 236.066L159.872 236.057L159.848 236.048L159.824 236.039L159.801 236.03L159.777 236.021L159.753 236.012L159.73 236.003L159.706 235.994L159.682 235.985L159.659 235.976L159.635 235.967L159.611 235.958L159.588 235.949L159.564 235.94L159.54 235.931L159.517 235.922L159.493 235.913L159.469 235.904L159.446 235.895L159.422 235.886L159.398 235.877L159.375 235.868L159.351 235.859L159.327 235.85L159.304 235.841L159.28 235.832L159.256 235.823L159.233 235.814L159.209 235.805L159.185 235.796L159.162 235.787L159.138 235.778L159.114 235.769L159.091 235.76L159.067 235.751L159.043 235.742L159.02 235.733L158.996 235.724L158.972 235.715L158.949 235.706L158.925 235.697L158.901 235.688L158.878 235.679L158.854 235.67L158.83 235.661L158.807 235.652L158.783 235.643L158.759 235.634L158.736 235.625L158.712 235.616L158.688 235.607L158.665 235.598L158.641 235.589L158.617 235.58L158.594 235.571L158.57 235.562L158.546 235.553L158.523 235.544L158.499 235.535L158.475 235.526L158.452 235.517L158.428 235.508L158.404 235.499L158.381 235.49L158.357 235.481L158.333 235.472L158.31 235.463L158.286 235.454L158.262 235.445L158.239 235.436L158.215 235.427L158.191 235.418L158.168 235.409L158.144 235.4L158.12 235.391L158.097 235.382L158.073 235.373L158.049 235.364L158.026 235.355L158.002 235.346L157.978 235.337L157.955 235.328L157.931 235.319L157.907 235.31L157.884 235.301L157.86 235.292L157.836 235.283L157.813 235.275L157.789 235.266L157.765 235.257L157.742 235.248L157.718 235.239L157.694 235.23L157.671 235.221L157.647 235.212L157.623 235.203L157.6 235.194L157.576 235.185L157.552 235.176L157.529 235.167L157.505 235.158L157.481 235.149L157.458 235.14L157.434 235.131L157.41 235.122L157.387 235.113L157.363 235.104L157.339 235.095L157.316 235.086L157.292 235.077L157.268 235.068L157.245 235.059L157.221 235.05L157.197 235.041L157.174 235.032L157.15 235.023L157.126 235.014L157.103 235.005L157.079 234.996L157.055 234.987L157.032 234.978L157.008 234.969L156.984 234.96L156.961 234.951L156.937 234.942L156.913 234.933L156.89 234.924L156.866 234.915L156.842 234.906L156.819 234.897L156.795 234.888L156.771 234.879L156.748 234.87L156.724 234.861L156.7 234.852L156.677 234.843L156.653 234.834L156.629 234.825L156.606 234.816L156.582 234.807L156.558 234.798L156.535 234.789L156.511 234.78L156.487 234.771L156.464 234.762L156.44 234.753L156.416 234.744L156.393 234.735L156.369 234.726L156.345 234.717L156.322 234.708L156.298 234.699L156.274 234.69L156.251 234.681L156.227 234.672L156.203 234.663L156.18 234.654L156.156 234.645L156.132 234.636L156.109 234.627L156.085 234.618L156.061 234.609L156.038 234.6L156.014 234.591L155.99 234.582L155.967 234.573L155.943 234.564L155.919 234.555L155.896 234.546L155.872 234.537L155.848 234.528L155.825 234.519L155.801 234.51L155.777 234.501L155.754 234.492L155.73 234.483L155.706 234.474L155.683 234.465L155.659 234.456L155.635 234.447L155.612 234.438L155.588 234.429L155.564 234.42L155.541 234.411L155.517 234.402L155.493 234.393L155.47 234.384L155.446 234.375L155.422 234.366L155.399 234.357L155.375 234.348L155.351 234.339L155.328 234.33L155.304 234.321L155.28 234.312L155.257 234.303L155.233 234.294L155.209 234.286L155.186 234.277L155.162 234.268L155.138 234.259L155.115 234.25L155.091 234.241L155.067 234.232L155.044 234.223L155.02 234.214L154.996 234.205L154.973 234.196L154.949 234.187L154.925 234.178L154.902 234.169L154.878 234.16L154.854 234.151L154.831 234.142L154.807 234.133L154.783 234.124L154.76 234.115L154.736 234.106L154.712 234.097L154.689 234.088L154.665 234.079L154.641 234.07L154.618 234.061L154.594 234.052L154.57 234.043L154.547 234.034L154.523 234.025L154.499 234.016L154.476 234.007L154.452 233.998L154.428 233.989L154.405 233.98L154.381 233.971L154.357 233.962L154.334 233.953L154.31 233.944L154.286 233.935L154.263 233.926L154.239 233.917L154.215 233.908L154.192 233.899L154.168 233.89L154.144 233.881L154.121 233.872L154.097 233.863L154.073 233.854L154.05 233.845L154.026 233.836L154.002 233.827L153.979 233.818L153.955 233.809L153.931 233.8L153.908 233.791L153.884 233.782L153.86 233.773L153.837 233.764L153.813 233.755L153.789 233.746L153.766 233.737L153.742 233.728L153.718 233.719L153.695 233.71L153.671 233.701L153.647 233.692L153.624 233.683L153.6 233.674L153.576 233.665L153.553 233.656L153.529 233.647L153.505 233.638L153.482 233.629L153.458 233.62L153.434 233.611L153.411 233.602L153.387 233.593L153.363 233.584L153.34 233.575L153.316 233.566L153.292 233.557L153.269 233.548L153.245 233.539L153.221 233.53L153.198 233.521L153.174 233.512L153.15 233.503L153.127 233.494L153.103 233.485L153.079 233.476L153.056 233.467L153.032 233.458L153.008 233.449L152.985 233.44L152.961 233.431L152.937 233.422L152.914 233.413L152.89 233.404L152.866 233.395L152.843 233.386L152.819 233.377L152.795 233.368L152.772 233.359L152.748 233.35L152.724 233.341L152.701 233.332L152.677 233.323L152.653 233.314L152.63 233.305L152.606 233.297L152.582 233.288L152.559 233.279L152.535 233.27L152.511 233.261L152.488 233.252L152.464 233.243L152.44 233.234L152.417 233.225L152.393 233.216L152.369 233.207L152.346 233.198L152.322 233.189L152.298 233.18L152.275 233.171L152.251 233.162L152.227 233.153L152.204 233.144L152.18 233.135L152.156 233.126L152.133 233.117L152.109 233.108L152.085 233.099L152.062 233.09L152.038 233.081L152.014 233.072L151.991 233.063L151.967 233.054L151.943 233.045L151.92 233.036L151.896 233.027L151.872 233.018L151.849 233.009L151.825 233L151.801 232.991L151.778 232.982L151.754 232.973L151.73 232.964L151.707 232.955L151.683 232.946L151.659 232.937L151.636 232.928L151.612 232.919L151.588 232.91L151.565 232.901L151.541 232.892L151.517 232.883L151.494 232.874L151.47 232.865L151.446 232.856L151.423 232.847L151.399 232.838L151.375 232.829L151.352 232.82L151.328 232.811L151.304 232.802L151.281 232.793L151.257 232.784L151.233 232.775L151.21 232.766L151.186 232.757L151.162 232.748L151.139 232.739L151.115 232.73L151.091 232.721L151.068 232.712L151.044 232.703L151.02 232.694L150.997 232.685L150.973 232.676L150.949 232.667L150.926 232.658L150.902 232.649L150.878 232.64L150.855 232.631L150.831 232.622L150.807 232.613L150.784 232.604L150.76 232.595L150.736 232.586L150.713 232.577L150.689 232.568C144.288 241.308 137.228 250.202 128.979 258.469C128.285 259.164 127.399 260.092 126.374 261.167C123.357 264.331 119.13 268.763 115.042 272.23C109.182 277.198 100.758 282.882 89.8975 284.119C84.2259 284.766 76.8358 283.519 71.1013 281.716C67.9909 280.739 64.3316 279.284 60.9461 277.114C57.8597 275.136 52.9746 271.272 50.6912 264.704C48.7694 259.176 47.081 253.793 46.5747 246.262C45.958 237.088 45.7435 227.948 45.913 218.811C46.1848 204.16 49.0445 192.483 53.8763 179.764L53.9019 179.696L53.9275 179.629L53.9532 179.561L53.9788 179.494L54.0044 179.426L54.0301 179.359L54.0557 179.291L54.0813 179.224L54.107 179.157L54.1326 179.089L54.1582 179.022L54.1839 178.954L54.2095 178.887L54.2351 178.819L54.2608 178.752L54.2864 178.684L54.312 178.617L54.3377 178.549L54.3633 178.482L54.3889 178.414L54.4146 178.347L54.4402 178.279L54.4658 178.212L54.4915 178.144L54.5171 178.077L54.5427 178.009L54.5684 177.942L54.594 177.874L54.6196 177.807L54.6453 177.74L54.6709 177.672L54.6965 177.605L54.7222 177.537L54.7478 177.47L54.7734 177.402L54.7991 177.335L54.8247 177.267L54.8503 177.2L54.876 177.132L54.9016 177.065L54.9272 176.997L54.9529 176.93L54.9785 176.862L55.0042 176.795L55.0298 176.727L55.0554 176.66L55.081 176.592L55.1067 176.525L55.1323 176.457L55.158 176.39L55.1836 176.323L55.2092 176.255L55.2349 176.188L55.2605 176.12L55.2861 176.053L55.3118 175.985L55.3374 175.918L55.363 175.85L55.3887 175.783L55.4143 175.715L55.4399 175.648L55.4656 175.58L55.4912 175.513L55.5168 175.445L55.5425 175.378L55.5681 175.31L55.5937 175.243L55.6194 175.175L55.645 175.108L55.6706 175.04L55.6963 174.973L55.7219 174.906L55.7475 174.838L55.7732 174.771L55.7988 174.703L55.8244 174.636L55.8501 174.568L55.8757 174.501L55.9013 174.433L55.927 174.366L55.9526 174.298L55.9782 174.231L56.0039 174.163L56.0295 174.096L56.0551 174.028L56.0808 173.961L56.1064 173.893L56.132 173.826L56.1577 173.758L56.1833 173.691L56.2089 173.623L56.2346 173.556L56.2602 173.489L56.2858 173.421L56.3115 173.354L56.3371 173.286L56.3627 173.219L56.3884 173.151L56.414 173.084L56.4396 173.016L56.4653 172.949L56.4909 172.881L56.5165 172.814L56.5422 172.746L56.5678 172.679L56.5934 172.611L56.6191 172.544L56.6447 172.476L56.6703 172.409L56.696 172.341L56.7216 172.274L56.7472 172.206L56.7729 172.139L56.7985 172.072L56.8241 172.004L56.8498 171.937L56.8754 171.869L56.901 171.802L56.9267 171.734L56.9523 171.667L56.978 171.599L57.0036 171.532L57.0292 171.464L57.0549 171.397L57.0805 171.329L57.1061 171.262L57.1318 171.194L57.1574 171.127L57.183 171.059L57.2087 170.992L57.2343 170.924L57.2599 170.857L57.2856 170.789L57.3112 170.722L57.3368 170.654L57.3625 170.587L57.3881 170.52L57.4137 170.452L57.4394 170.385L57.465 170.317L57.4906 170.25L57.5163 170.182L57.5419 170.115L57.5675 170.047L57.5932 169.98L57.6188 169.912L57.6444 169.845L57.6701 169.777L57.6957 169.71L57.7213 169.642L57.747 169.575L57.7726 169.507L57.7982 169.44L57.8239 169.372L57.8495 169.305L57.8751 169.237L57.9008 169.17L57.9264 169.103L57.952 169.035L57.9777 168.968L58.0033 168.9L58.0289 168.833L58.0546 168.765L58.0802 168.698L58.1058 168.63L58.1315 168.563L58.1571 168.495L58.1827 168.428L58.2084 168.36L58.234 168.293L58.2596 168.225L58.2853 168.158L58.3109 168.09L58.3365 168.023L58.3622 167.955L58.3878 167.888L58.4134 167.82L58.4391 167.753L58.4647 167.686L58.4903 167.618L58.516 167.551L58.5416 167.483L58.5672 167.416L58.5929 167.348L58.6185 167.281L58.6441 167.213L58.6698 167.146L58.6954 167.078L58.721 167.011L58.7467 166.943L58.7723 166.876L58.7979 166.808L58.8236 166.741L58.8492 166.673L58.8748 166.606L58.9005 166.538L58.9261 166.471L58.9518 166.403L58.9774 166.336L59.003 166.269L59.0287 166.201L59.0543 166.134L59.0799 166.066L59.1056 165.999L59.1312 165.931L59.1568 165.864L59.1825 165.796L59.2081 165.729L59.2337 165.661L59.2594 165.594L59.285 165.526L59.3106 165.459L59.3363 165.391L59.3619 165.324L59.3875 165.256L59.4132 165.189L59.4388 165.121L59.4644 165.054L59.4901 164.986L59.5157 164.919L59.5413 164.852L59.567 164.784L59.5926 164.717L59.6182 164.649L59.6439 164.582L59.6695 164.514L59.6951 164.447L59.7208 164.379L59.7464 164.312L59.772 164.244L59.7977 164.177L59.8233 164.109L59.8489 164.042L59.8746 163.974L59.9002 163.907L59.9258 163.839L59.9515 163.772L59.9771 163.704L60.0027 163.637L60.0284 163.569L60.054 163.502L60.0796 163.435L60.1053 163.367L60.1309 163.3L60.1565 163.232L60.1822 163.165L60.2078 163.097L60.2334 163.03L60.2591 162.962L60.2847 162.895L60.3103 162.827L60.336 162.76L60.3616 162.692L60.3872 162.625L60.4129 162.557L60.4385 162.49L60.4641 162.422L60.4898 162.355L60.5154 162.287L60.541 162.22L60.5667 162.152L60.5923 162.085L60.6179 162.018L60.6436 161.95L60.6692 161.883L60.6948 161.815L60.7205 161.748L60.7461 161.68L60.7718 161.613L60.7974 161.545L60.823 161.478L60.8486 161.41L60.8743 161.343L60.8999 161.275L60.9255 161.208L60.9512 161.14L60.9768 161.073L61.0025 161.005L61.0281 160.938L61.0537 160.87L61.0794 160.803L61.105 160.735L61.1306 160.668L61.1563 160.601L61.1819 160.533L61.2075 160.466L61.2332 160.398L61.2588 160.331L61.2844 160.263L61.3101 160.196L61.3357 160.128L61.3613 160.061L61.387 159.993L61.4126 159.926L61.4382 159.858L61.4639 159.791L61.4895 159.723L61.5151 159.656L61.5408 159.588L61.5664 159.521L61.592 159.453L61.6177 159.386L61.6433 159.318L61.6689 159.251L61.6946 159.184L61.7202 159.116L61.7458 159.049L61.7715 158.981L61.7971 158.914L61.8227 158.846L61.8484 158.779L61.874 158.711L61.8996 158.644L61.9253 158.576L61.9509 158.509L61.9765 158.441L62.0022 158.374L62.0278 158.306L62.0534 158.239L62.0791 158.171L62.1047 158.104L62.1303 158.036L62.156 157.969L62.1816 157.901L62.2072 157.834L62.2329 157.767L62.2585 157.699L62.2841 157.632L62.3098 157.564L62.3354 157.497L62.361 157.429L62.3867 157.362L62.4123 157.294L62.4379 157.227L62.4636 157.159L62.4892 157.092L62.5148 157.024L62.5405 156.957L62.5661 156.889L62.5917 156.822L62.6174 156.754L62.643 156.687L62.6686 156.619L62.6943 156.552L62.7199 156.484L62.7455 156.417L62.7712 156.35L62.7968 156.282L62.8225 156.215L62.8481 156.147L62.8737 156.08L62.8993 156.012L62.925 155.945L62.9506 155.877L62.9763 155.81L63.0019 155.742L63.0275 155.675L63.0532 155.607L63.0788 155.54L63.1044 155.472L63.1301 155.405L63.1557 155.337L63.1813 155.27L63.207 155.202L63.2326 155.135L63.2582 155.067L63.2839 155L63.3095 154.933L63.3351 154.865L63.3608 154.798L63.3864 154.73L63.412 154.663L63.4377 154.595L63.4633 154.528L63.4889 154.46L63.5146 154.393L63.5402 154.325L63.5658 154.258L63.5915 154.19L63.6171 154.123L63.6427 154.055L63.6684 153.988L63.694 153.92L63.7196 153.853L63.7453 153.785L63.7709 153.718L63.7965 153.65L63.8222 153.583L63.8478 153.516L63.8734 153.448L63.8991 153.381L63.9247 153.313L63.9503 153.246L63.976 153.178L64.0016 153.111L64.0272 153.043L64.0529 152.976L64.0785 152.908L64.1041 152.841L64.1298 152.773L64.1554 152.706L64.181 152.638L64.2067 152.571L64.2323 152.503L64.2579 152.436L64.2836 152.368L64.3092 152.301L64.3348 152.233L64.3605 152.166L64.3861 152.099L64.4117 152.031L64.4374 151.964L64.463 151.896L64.4886 151.829L64.5143 151.761L64.5399 151.694L64.5655 151.626L64.5912 151.559L64.6168 151.491L64.6424 151.424L64.6681 151.356L64.6937 151.289L64.7193 151.221L64.745 151.154L64.7706 151.086L64.7963 151.019L64.8219 150.951L64.8475 150.884L64.8732 150.816L64.8988 150.749L64.9244 150.682L64.9501 150.614L64.9757 150.547L65.0013 150.479L65.027 150.412L65.0526 150.344L65.0782 150.277L65.1039 150.209L65.1295 150.142L65.1551 150.074L65.1808 150.007L65.2064 149.939L65.232 149.872L65.2577 149.804L65.2833 149.737L65.3089 149.669L65.3346 149.602L65.3602 149.534L65.3858 149.467L65.4115 149.399L65.4371 149.332L65.4627 149.265L65.4884 149.197L65.514 149.13L65.5396 149.062L65.5653 148.995L65.5909 148.927L65.6165 148.86L65.6422 148.792L65.6678 148.725L65.6934 148.657L65.7191 148.59L65.7447 148.522L65.7703 148.455L65.796 148.387L65.8216 148.32L65.8472 148.252L65.8729 148.185L65.8985 148.117L65.9241 148.05L65.9498 147.982L65.9754 147.915L66.001 147.847L66.0267 147.78L66.0523 147.713L66.0779 147.645L66.1036 147.578L66.1292 147.51L66.1548 147.443L66.1805 147.375L66.2061 147.308L66.2317 147.24L66.2574 147.173L66.283 147.105L66.3086 147.038L66.3343 146.97L66.3599 146.903L66.3855 146.835L66.4112 146.768L66.4368 146.7L66.4624 146.633L66.4881 146.565L66.5137 146.498L66.5273 146.462C60.7259 141.519 54.9324 136.518 49.206 131.443C46.6627 129.189 44.0503 127.058 41.1365 124.682L41.1361 124.682C40.1626 123.888 39.1554 123.067 38.106 122.204C34.1256 118.933 29.7214 115.212 25.6257 111.052C23.1817 108.569 21.21 106.444 19.4628 104.562L19.4625 104.561L19.4624 104.561L19.4617 104.56C16.1688 101.011 13.6733 98.3221 10.3157 95.7167C10.2565 95.6708 10.1865 95.6169 10.1072 95.5557L10.1046 95.5537C9.49569 95.0841 8.34162 94.1942 7.32026 93.2819C6.18818 92.2706 4.01589 90.2096 2.35604 87.1237C0.427482 83.5383 -0.606028 78.9314 0.487463 73.9291C1.46119 69.4746 3.79684 66.2409 5.59773 64.2181C11.6365 57.4352 19.57 50.455 31.2987 47.07C47.7925 42.3099 63.4723 44.6082 77.0273 48.5624C85.9728 51.172 95.4672 55.0377 103.747 58.409Z" fill="#FFB100"/>
</svg>
