<svg width="330" height="317" viewBox="0 0 330 317" fill="none" xmlns="http://www.w3.org/2000/svg">
<path d="M40.6443 168.461C38.6473 161.472 36.6502 154.484 34.6532 147.495C34.2202 145.98 15.4719 100.103 17.0006 98.8363C18.9143 97.2504 137.72 128.085 40.3921 136.455C42.6967 135.485 68.5672 123.921 71.0417 123.48C74.8311 122.805 56.2815 137.574 59.7235 138.878C62.9348 140.093 68.8583 143.721 71.0417 141.07C80.3026 129.829 87.2873 116.678 99.4142 108.25C110.597 100.477 124.992 94.9145 137.72 90.3257C157.73 83.1118 178.122 78.6545 199.292 77.3344C201.332 77.2072 209.376 79.5121 208.385 76.0444C206.694 70.125 184.424 72.3365 187.993 68.9999C191.852 65.3934 214.036 20.5901 217.553 17C220.886 13.598 248.082 58.4233 250.435 60.5C260.645 69.5096 262.122 76.3617 265.932 89.6918C267.01 93.4646 269.843 95.9488 272.424 98.8363C278.216 105.315 283.591 112.065 288.564 119.228C294.24 127.402 298.202 137.422 302.175 146.496C308.381 160.67 313.471 176.25 313.171 191.762C312.686 216.797 302.55 238.776 282.703 253.674C264.028 267.694 242.943 274.724 221.283 282.758C209.13 287.266 197.415 292.002 184.923 295.571C170.182 299.784 155.412 301.307 140.034 300.064C121.497 298.566 101.553 287.361 88.2823 274.246C83.2021 269.225 77.2841 265.004 72.6853 259.562C66.2832 251.987 60.3193 241.61 57.2022 232.199C51.3101 214.411 45.3562 193.763 48.2844 175C49.1704 169.323 50.1379 165.924 48.4271 159.938C47.1833 155.585 50.4001 159.566 52.2119 160.601C57.7066 163.74 64.8878 161.533 70.4723 159.938C89.4027 154.528 101.634 136.562 114.665 122.548C119.528 117.317 125.503 117.1 131.287 113.34C136.476 109.966 142.479 108.833 148.392 107.143C157.798 104.456 167.361 103.561 176.913 101.659C184.996 100.049 194.22 102.2 202.369 102.67C209.859 103.102 216.327 105.17 223.523 102.198C227.922 100.381 232.154 95.6114 234.006 91.207C234.236 90.6611 237.617 81.6468 235.69 82.1976C235.24 82.3259 235.354 84.0025 235.222 83.5425C234.868 82.3031 234.514 81.0636 234.16 79.8242C233.847 78.7296 220.572 50.5642 220.336 51C219.81 51.9748 232.354 76.4853 232.617 77.406C235.266 86.6767 243.589 94.427 249.109 102.01C254.156 108.942 258.359 115.461 262.286 122.957C265.498 129.09 268.427 135.294 272.44 140.941C276.214 146.252 281.175 152.68 283.874 158.607C286.898 165.245 288.78 173.988 290.157 181.088C292.374 192.522 291.073 204.242 289.999 215.634C288.772 228.657 278.879 236.48 268.147 242.134C260.443 246.193 252.57 248.472 244.572 251.681C235.674 255.251 227.06 258.899 217.551 260.759C201.474 263.904 185.038 264.344 168.993 267.803C157.669 270.244 146.274 274.792 134.665 275.48C117.681 276.488 101.747 266.783 88.8559 256.056C83.3827 251.502 80.0213 245.451 75.5854 240.078C69.2421 232.394 63.1495 223.651 59.5242 214.333C58.2184 210.977 49.9774 193.688 53.9789 190.623C59.4228 186.454 67.2192 185.867 73.354 183.1C81.1573 179.581 89.7693 178.672 97.1698 174.066C102.657 170.65 107.303 164.663 110.865 159.249C113.847 154.717 117.531 147.529 122.04 144.717C129.928 139.798 139.259 134.664 148.078 131.704C157.419 128.569 167.249 125.701 176.856 123.48C184.877 121.626 194.905 119.313 203.161 119.016C209.216 118.799 215.132 117.202 221.075 115.981C227.027 114.758 229.132 117.205 233.695 121.242C234.773 122.196 240.6 126.789 236.881 128.085C229.113 130.791 221.671 135.021 214.01 138.109C201.63 143.1 189.707 148.867 178.066 155.359C168.008 160.967 159.248 168.837 149.078 174.109C133.945 181.954 114.66 182.033 101.054 193.453C96.7398 197.074 92.0751 200.177 87.3958 203.268C85.9319 204.234 86.0448 200.843 83.723 201.507C79.611 202.682 77.6595 203.991 75.3257 207.88C75.0902 208.272 71.9453 213.062 72.3741 213.278C75.1552 214.678 82.3281 208.16 83.8831 207.033C93.1479 200.321 102.939 194.454 112.526 188.237C120.427 183.112 127.22 176.874 134.739 171.277C142.427 165.554 149.25 158.942 157.388 153.854C163.727 149.89 170.7 146.803 177.186 143.011C186.028 137.842 198.967 137.505 208.917 136.512C219.442 135.461 243.336 133.247 250.435 143.401C250.502 143.496 222.968 152.34 221.202 153.014C207.842 158.116 194.843 165.056 182.149 171.636C161.781 182.194 142.362 194.186 121.366 203.446C109.357 208.742 93.7196 216.136 86.0713 227.438C81.6393 233.988 91.9192 229.906 94.5486 228.796C118.438 218.711 141.393 206.782 165.549 197.313C184.022 190.072 202.18 182.361 220.336 174.486C231.824 169.502 244.203 167.357 255.611 162.177C256.87 161.605 269.012 157.769 265.193 162.927C261.516 167.893 257.136 172.131 253.591 177.291C242.166 193.918 230.355 209.089 213.529 220.527C195.895 232.513 173.761 235.3 153.669 240.83C144.754 243.284 136.405 246.664 127.959 250.358C120.491 253.624 112.196 255.298 104.369 257.535C99.8077 258.838 90.1601 263.473 85.3677 260.735C82.1092 258.874 95.5151 250.103 95.5656 250.068C110.988 239.596 128.078 233.147 145.526 227.069C153.792 224.19 162.374 222.128 170.403 218.604C176.246 216.04 181.865 212.795 187.994 210.961C195.844 208.611 203.513 205.541 211.099 202.42C217.083 199.958 222.539 196.074 228.685 194.099C236.414 191.616 243.963 188.861 251.81 186.619C254.407 185.877 268.572 182.701 269.84 187.136C270.422 189.174 267.468 192.808 266.68 194.29C263.58 200.12 261.176 206.477 256.962 211.604C252.267 217.317 244.747 219.057 238.007 221.091C230.79 223.269 223.922 226.382 216.818 228.89C204.001 233.416 191.635 239.059 178.671 243.232C169.986 246.027 161.141 249.08 153.161 253.623C147.337 256.938 142.994 270.819 149.435 275.185C153.898 278.209 156.647 283.807 162.194 285.397C169.242 287.418 181.819 283.708 187.956 280.361C194.481 276.804 201.367 273.117 207.475 268.872C216.196 262.811 225.261 257.668 234.12 251.857C254.203 238.684 276.279 221.93 276.889 195.249C277.046 188.362 265.303 202.158 264.164 203.198C250.284 215.872 235.844 228.93 219.412 238.131C207.444 244.833 195.802 252.639 182.676 256.915C180.412 257.653 167.678 262.949 165.838 260.903" stroke="#3D7BD2" stroke-width="33" stroke-linecap="round"/>
</svg>
